<svg width="82" height="82" viewBox="0 0 82 82" fill="none" xmlns="http://www.w3.org/2000/svg">
<g clip-path="url(#clip0_2891_3333)">
<path d="M14.514 26.486L0 41L14.514 55.514L21.73 48.257L14.514 41L21.73 33.743L14.514 26.486ZM41 67.486L33.743 60.27L26.486 67.486L41 82L55.514 67.486L48.257 60.27L41 67.486ZM67.486 26.486L60.27 33.743L67.486 41L60.27 48.257L67.486 55.514L82 41L67.486 26.486ZM26.486 14.514L33.743 21.73L41 14.514L48.257 21.73L55.514 14.514L41 0L26.486 14.514Z" fill="black"/>
<path d="M14.514 26.486L0 41L14.514 55.514L21.73 48.257L14.514 41L21.73 33.743L14.514 26.486ZM41 67.486L33.743 60.27L26.486 67.486L41 82L55.514 67.486L48.257 60.27L41 67.486ZM67.486 26.486L60.27 33.743L67.486 41L60.27 48.257L67.486 55.514L82 41L67.486 26.486ZM26.486 14.514L33.743 21.73L41 14.514L48.257 21.73L55.514 14.514L41 0L26.486 14.514Z" fill="url(#paint0_linear_2891_3333)"/>
<path d="M41 53.3C47.7931 53.3 53.3 47.7931 53.3 41C53.3 34.2069 47.7931 28.7 41 28.7C34.2069 28.7 28.7 34.2069 28.7 41C28.7 47.7931 34.2069 53.3 41 53.3Z" fill="black"/>
<path d="M41 53.3C47.7931 53.3 53.3 47.7931 53.3 41C53.3 34.2069 47.7931 28.7 41 28.7C34.2069 28.7 28.7 34.2069 28.7 41C28.7 47.7931 34.2069 53.3 41 53.3Z" fill="url(#paint1_linear_2891_3333)"/>
</g>
<defs>
<linearGradient id="paint0_linear_2891_3333" x1="-8.82956e-07" y1="8.4375" x2="85.6394" y2="136.521" gradientUnits="userSpaceOnUse">
<stop stop-color="#0056B3"/>
<stop offset="1" stop-color="#B3B0B0"/>
</linearGradient>
<linearGradient id="paint1_linear_2891_3333" x1="28.7" y1="31.2313" x2="54.3918" y2="69.6563" gradientUnits="userSpaceOnUse">
<stop stop-color="#0056B3"/>
<stop offset="1" stop-color="#B3B0B0"/>
</linearGradient>
<clipPath id="clip0_2891_3333">
<rect width="82" height="82" fill="white"/>
</clipPath>
</defs>
</svg>
