<svg width="82" height="82" viewBox="0 0 82 82" fill="none" xmlns="http://www.w3.org/2000/svg">
<path d="M37.019 53.7114L28.3339 45.0262L37.019 36.341L31.3757 30.6577L17.0071 45.0262L31.3757 59.3947L37.019 53.7114Z" fill="black"/>
<path d="M37.019 53.7114L28.3339 45.0262L37.019 36.341L31.3757 30.6577L17.0071 45.0262L31.3757 59.3947L37.019 53.7114Z" fill="url(#paint0_linear_2891_3228)"/>
<path d="M50.6672 59.3947L65.0357 45.0262L50.6672 30.6577L45.0238 36.341L53.709 45.0262L45.0238 53.7114L50.6672 59.3947Z" fill="black"/>
<path d="M50.6672 59.3947L65.0357 45.0262L50.6672 30.6577L45.0238 36.341L53.709 45.0262L45.0238 53.7114L50.6672 59.3947Z" fill="url(#paint1_linear_2891_3228)"/>
<path d="M69.0381 9.0047H52.3081C50.6271 4.36194 46.2245 0.999939 41.0214 0.999939C35.8183 0.999939 31.4157 4.36194 29.7347 9.0047H13.0048C12.4444 9.0047 11.9241 9.04473 11.4038 9.1648C9.84288 9.48499 8.44205 10.2855 7.3614 11.3661C6.64098 12.0865 6.04062 12.9671 5.64038 13.9276C5.24014 14.8482 5 15.8888 5 17.0095V57.0333V61.0357V73.0428C5 74.1234 5.24014 75.2041 5.64038 76.1647C6.04062 77.1252 6.64098 77.9657 7.3614 78.7262C8.44205 79.8068 9.84288 80.6073 11.4038 80.9275C11.9241 81.0075 12.4444 81.0476 13.0048 81.0476H69.0381C73.4407 81.0476 77.0429 77.4454 77.0429 73.0428V61.0357V57.0333V17.0095C77.0429 12.6068 73.4407 9.0047 69.0381 9.0047ZM41.0214 8.00411C42.6624 8.00411 44.0232 9.36492 44.0232 11.0059C44.0232 12.6469 42.6624 14.0077 41.0214 14.0077C39.3805 14.0077 38.0196 12.6469 38.0196 11.0059C38.0196 9.36492 39.3805 8.00411 41.0214 8.00411ZM69.0381 57.0333V61.0357V73.0428H13.0048V61.0357V57.0333V17.0095H69.0381V57.0333Z" fill="black"/>
<path d="M69.0381 9.0047H52.3081C50.6271 4.36194 46.2245 0.999939 41.0214 0.999939C35.8183 0.999939 31.4157 4.36194 29.7347 9.0047H13.0048C12.4444 9.0047 11.9241 9.04473 11.4038 9.1648C9.84288 9.48499 8.44205 10.2855 7.3614 11.3661C6.64098 12.0865 6.04062 12.9671 5.64038 13.9276C5.24014 14.8482 5 15.8888 5 17.0095V57.0333V61.0357V73.0428C5 74.1234 5.24014 75.2041 5.64038 76.1647C6.04062 77.1252 6.64098 77.9657 7.3614 78.7262C8.44205 79.8068 9.84288 80.6073 11.4038 80.9275C11.9241 81.0075 12.4444 81.0476 13.0048 81.0476H69.0381C73.4407 81.0476 77.0429 77.4454 77.0429 73.0428V61.0357V57.0333V17.0095C77.0429 12.6068 73.4407 9.0047 69.0381 9.0047ZM41.0214 8.00411C42.6624 8.00411 44.0232 9.36492 44.0232 11.0059C44.0232 12.6469 42.6624 14.0077 41.0214 14.0077C39.3805 14.0077 38.0196 12.6469 38.0196 11.0059C38.0196 9.36492 39.3805 8.00411 41.0214 8.00411ZM69.0381 57.0333V61.0357V73.0428H13.0048V61.0357V57.0333V17.0095H69.0381V57.0333Z" fill="url(#paint2_linear_2891_3228)"/>
<defs>
<linearGradient id="paint0_linear_2891_3228" x1="17.0071" y1="33.6146" x2="49.4574" y2="67.412" gradientUnits="userSpaceOnUse">
<stop stop-color="#0056B3"/>
<stop offset="1" stop-color="#B3B0B0"/>
</linearGradient>
<linearGradient id="paint1_linear_2891_3228" x1="45.0238" y1="33.6146" x2="77.4741" y2="67.412" gradientUnits="userSpaceOnUse">
<stop stop-color="#0056B3"/>
<stop offset="1" stop-color="#B3B0B0"/>
</linearGradient>
<linearGradient id="paint2_linear_2891_3228" x1="5" y1="9.23655" x2="91.6127" y2="125.822" gradientUnits="userSpaceOnUse">
<stop stop-color="#0056B3"/>
<stop offset="1" stop-color="#B3B0B0"/>
</linearGradient>
</defs>
</svg>
