<svg width="82" height="82" viewBox="0 0 82 82" fill="none" xmlns="http://www.w3.org/2000/svg">
<g clip-path="url(#clip0_2891_1776)">
<path d="M41.5454 8.1627L67.6363 19.7545V37.2727C67.6363 54.12 56.529 69.6627 41.5454 74.2845C26.5618 69.6627 15.4545 54.12 15.4545 37.2727V19.7545L41.5454 8.1627ZM41.5454 -3.05176e-05L7.99994 14.9091V37.2727C7.99994 57.9591 22.3127 77.3036 41.5454 82C60.7781 77.3036 75.0909 57.9591 75.0909 37.2727V14.9091L41.5454 -3.05176e-05ZM37.8181 22.3636H45.2727V29.8182H37.8181V22.3636ZM37.8181 37.2727H45.2727V59.6363H37.8181V37.2727Z" fill="black"/>
<path d="M41.5454 8.1627L67.6363 19.7545V37.2727C67.6363 54.12 56.529 69.6627 41.5454 74.2845C26.5618 69.6627 15.4545 54.12 15.4545 37.2727V19.7545L41.5454 8.1627ZM41.5454 -3.05176e-05L7.99994 14.9091V37.2727C7.99994 57.9591 22.3127 77.3036 41.5454 82C60.7781 77.3036 75.0909 57.9591 75.0909 37.2727V14.9091L41.5454 -3.05176e-05ZM37.8181 22.3636H45.2727V29.8182H37.8181V22.3636ZM37.8181 37.2727H45.2727V59.6363H37.8181V37.2727Z" fill="url(#paint0_linear_2891_1776)"/>
</g>
<defs>
<linearGradient id="paint0_linear_2891_1776" x1="7.99994" y1="8.43747" x2="98.8152" y2="119.567" gradientUnits="userSpaceOnUse">
<stop stop-color="#0056B3"/>
<stop offset="1" stop-color="#B3B0B0"/>
</linearGradient>
<clipPath id="clip0_2891_1776">
<rect width="82" height="82" fill="white"/>
</clipPath>
</defs>
</svg>
