<svg width="82" height="84" viewBox="0 0 82 84" fill="none" xmlns="http://www.w3.org/2000/svg">
<path d="M56.7222 44.0149C45.5289 44.0149 36.4444 52.7615 36.4444 63.5387C36.4444 74.3158 45.5289 83.0625 56.7222 83.0625C67.9156 83.0625 77 74.3158 77 63.5387C77 52.7615 67.9156 44.0149 56.7222 44.0149ZM63.4139 72.7149L54.6944 64.3196V51.8244H58.75V62.7187L66.2528 69.9425L63.4139 72.7149ZM60.7778 8.87202H47.8811C46.1778 4.3425 41.7167 1.0625 36.4444 1.0625C31.1722 1.0625 26.7111 4.3425 25.0078 8.87202H12.1111C7.65 8.87202 4 12.3863 4 16.6815V75.253C4 79.5482 7.65 83.0625 12.1111 83.0625H36.8906C34.4978 80.8368 32.5511 78.1815 31.1317 75.253H12.1111V16.6815H20.2222V28.3958H52.6667V16.6815H60.7778V36.5177C63.6572 36.9082 66.3744 37.7282 68.8889 38.8606V16.6815C68.8889 12.3863 65.2389 8.87202 60.7778 8.87202ZM36.4444 16.6815C34.2139 16.6815 32.3889 14.9244 32.3889 12.7768C32.3889 10.6292 34.2139 8.87202 36.4444 8.87202C38.675 8.87202 40.5 10.6292 40.5 12.7768C40.5 14.9244 38.675 16.6815 36.4444 16.6815Z" fill="url(#paint0_linear_2891_1488)"/>
<defs>
<linearGradient id="paint0_linear_2891_1488" x1="4" y1="9.5" x2="93" y2="128" gradientUnits="userSpaceOnUse">
<stop stop-color="#0056B3"/>
<stop offset="1" stop-color="#B3B0B0"/>
</linearGradient>
</defs>
</svg>
